<svg xmlns="http://www.w3.org/2000/svg" viewBox="0 0 32 32" fill="none">
  <rect width="32" height="32" rx="7" fill="#09090b"/>
  <g transform="translate(0.5 0.3)">
    <path fill-rule="evenodd" clip-rule="evenodd" d="M1.99632 3.66395C10.2525 -1.05691 20.1869 0.184693 24.2979 1.44236C25.0644 1.67684 25.4946 2.48488 25.2588 3.24717C25.0231 4.00945 24.2106 4.43732 23.4441 4.20284C19.7461 3.07152 10.7334 1.99954 3.44373 6.16776C3.28333 6.25948 3.19314 6.42741 3.20159 6.60239C3.47851 12.3364 6.47521 23.2787 16.7996 28.9983C17.5001 29.3864 17.7517 30.2659 17.3615 30.9626C16.9712 31.6593 16.087 31.9095 15.3864 31.5214C3.84624 25.1282 0.603905 13.0137 0.300971 6.74094C0.239834 5.47501 0.899242 4.29125 1.99632 3.66395Z" fill="#a5ff11"/>
    <path fill-rule="evenodd" clip-rule="evenodd" d="M29.5664 3.54671C30.3672 3.50486 31.0505 4.11657 31.0926 4.91301C31.6451 15.3703 26.1856 23.0399 22.6668 26.2841C21.7845 27.0975 20.4667 27.4148 19.261 26.8993C16.7595 25.8296 14.3382 23.5793 12.3718 21.3349C10.3763 19.0573 8.71015 16.623 7.73874 14.9886C7.33067 14.3021 7.55948 13.4165 8.2498 13.0107C8.94011 12.6048 9.83053 12.8324 10.2386 13.519C11.1313 15.0208 12.6959 17.3086 14.5612 19.4376C16.4557 21.5999 18.5252 23.4409 20.4081 24.246C20.4598 24.2681 20.5711 24.2781 20.6926 24.166C23.7736 21.3254 28.6877 14.4342 28.1926 5.06455C28.1506 4.26812 28.7656 3.58855 29.5664 3.54671Z" fill="#a5ff11"/>
    <path fill-rule="evenodd" clip-rule="evenodd" d="M13.9626 9.08908C11.3729 9.35469 9.21144 9.9738 8.08636 10.4321C7.34428 10.7344 6.49632 10.3812 6.19237 9.64313C5.88843 8.90511 6.2436 8.06176 6.98567 7.75947C8.38535 7.18931 10.8191 6.50803 13.6647 6.21619C16.5123 5.92413 19.8708 6.01174 23.069 7.0678C24.4419 7.52113 25.4089 8.83201 25.3086 10.3389C25.1006 13.4629 23.6591 16.6571 20.7873 20.3175C20.294 20.9463 19.3816 21.0583 18.7494 20.5677C18.1171 20.0771 18.0045 19.1696 18.4978 18.5408C21.1716 15.1328 22.2556 12.4819 22.4109 10.1481C22.4192 10.0241 22.3408 9.87051 22.154 9.8088C19.4671 8.92157 16.5503 8.82369 13.9626 9.08908Z" fill="#a5ff11"/>
  </g>
</svg>
