<?xml version="1.0" standalone="no"?>
<!DOCTYPE svg PUBLIC "-//W3C//DTD SVG 20010904//EN"
 "http://www.w3.org/TR/2001/REC-SVG-20010904/DTD/svg10.dtd">
<svg version="1.0" xmlns="http://www.w3.org/2000/svg"
 width="25" height="25" viewBox="0 0 512.000000 512.000000"
 preserveAspectRatio="xMidYMid meet">

<g transform="translate(0.000000,512.000000) scale(0.100000,-0.100000)"
fill="#000000" stroke="none">
<path d="M2315 5109 c-800 -83 -1501 -518 -1927 -1196 -487 -774 -516 -1777
-75 -2578 200 -364 487 -676 841 -913 238 -159 600 -311 876 -366 214 -43 295
-51 530 -51 236 0 333 10 532 51 880 184 1615 842 1898 1702 92 278 125 491
125 802 0 301 -32 513 -116 775 -124 390 -330 728 -622 1024 -399 404 -893
653 -1462 737 -123 18 -478 26 -600 13z m-441 -1775 c181 -47 402 -209 631
-464 l58 -64 40 49 c22 28 104 113 181 190 161 160 242 215 396 266 186 62
345 49 537 -46 115 -57 240 -170 309 -282 165 -264 157 -613 -19 -873 -179
-264 -531 -403 -795 -314 -172 57 -386 219 -595 452 l-57 63 -28 -33 c-68 -82
-227 -251 -275 -291 -119 -101 -242 -164 -379 -197 -356 -85 -737 140 -863
510 -74 217 -46 466 75 672 51 87 181 218 263 267 167 99 366 135 521 95z"/>
<path d="M3345 3033 c-67 -15 -152 -49 -202 -82 -60 -39 -218 -195 -318 -313
l-57 -68 60 -67 c102 -115 264 -268 331 -313 35 -23 98 -58 139 -78 76 -34 77
-35 142 -23 154 29 280 126 348 268 34 72 37 86 40 183 3 88 0 116 -18 170
-55 163 -184 281 -347 315 -70 15 -83 16 -118 8z"/>
<path d="M1654 3015 c-89 -19 -160 -59 -231 -131 -185 -185 -187 -487 -3 -673
99 -101 254 -156 368 -132 120 27 197 74 330 205 123 121 232 244 232 263 0
20 -263 283 -340 342 -91 69 -231 141 -269 140 -14 0 -53 -7 -87 -14z"/>
</g>
</svg>
