<svg
      width="25"
      height="25"
      viewBox="0 0 25 25"
      fill="none"
      xmlns="http://www.w3.org/2000/svg"
    >
      <path
        d="M12.4855 17.8433H13.6165L13.9795 19.5508H12.312"
        stroke="white"
        strokeLinecap="round"
        strokeLinejoin="round"
      />
      <path
        d="M21.5789 16.2211L15.7939 16.3276L13.6164 17.8436L13.8084 8.72758L15.0039 5.76058L20.8104 3.45508L21.7499 6.31558L20.8959 9.68858M21.5789 16.2211L20.4264 12.2151M21.5789 16.2211L20.5329 20.4691L16.2634 19.1456L13.9794 21.2161H12.4854M20.8959 9.68858L20.9814 11.3961L20.4264 12.2151M20.8959 9.68858L21.6429 9.56058M20.4264 12.2151L16.3489 11.0121M21.6429 10.4996L20.9409 10.5851M13.7194 12.9576L17.6939 12.8691"
        stroke="white"
        strokeLinecap="round"
        strokeLinejoin="round"
      />
      <path
        d="M18.3237 16.2811L16.2637 19.1456M16.2637 19.1456L15.7942 16.3276L17.6942 12.8691L16.3492 11.0121L13.8087 8.72758L20.8107 3.45508M16.2637 19.1456L13.6167 17.8436"
        stroke="white"
        strokeLinecap="round"
        strokeLinejoin="round"
      />
      <path
        d="M15.004 5.76025H12.4855M12.5145 17.8433H11.3835L11.0205 19.5508H12.312M14.225 15.1668L15.818 14.5743L14.681 13.9818L14.225 15.1668Z"
        stroke="white"
        strokeLinecap="round"
        strokeLinejoin="round"
      />
      <path
        d="M3.421 16.2211L9.206 16.3276L11.3835 17.8436L11.1915 8.72758L9.996 5.76058L4.1895 3.45508L3.25 6.31558L4.104 9.68858M3.421 16.2211L4.5735 12.2151M3.421 16.2211L4.467 20.4691L8.7365 19.1456L11.0205 21.2161H12.5145M4.104 9.68858L4.0185 11.3961L4.5735 12.2151M4.104 9.68858L3.3565 9.56058M4.5735 12.2151L8.651 11.0121M3.3565 10.4996L4.059 10.5851M11.2805 12.9576L7.306 12.8691"
        stroke="white"
        strokeLinecap="round"
        strokeLinejoin="round"
      />
      <path
        d="M6.67645 16.2811L8.73645 19.1456M8.73645 19.1456L9.20595 16.3276L7.30595 12.8691L8.65095 11.0121L11.1915 8.72758L4.18945 3.45508M8.73645 19.1456L11.3835 17.8436"
        stroke="white"
        strokeLinecap="round"
        strokeLinejoin="round"
      />
      <path
        d="M9.99613 5.76025H12.5146M10.7751 15.1668L9.18213 14.5743L10.3191 13.9818L10.7751 15.1668Z"
        stroke="white"
        strokeLinecap="round"
        strokeLinejoin="round"
      />
</svg>