<svg xmlns:xlink="http://www.w3.org/1999/xlink" xmlns="http://www.w3.org/2000/svg" width="713" height="193" viewBox="0 0 713 193" fill="none">
<path d="M256.962 137.846C250.526 137.846 244.697 136.499 239.474 133.806C234.344 131.023 230.24 127.028 227.162 121.822C224.178 116.525 222.686 110.196 222.686 102.835C222.686 95.3836 224.364 89.0546 227.722 83.8478C231.08 78.641 235.51 74.691 241.013 71.9978C246.516 69.2149 252.438 67.8234 258.781 67.8234C263.071 67.8234 266.848 68.4967 270.113 69.8433C273.47 71.1899 276.455 72.8955 279.066 74.9603L269.413 87.7529C266.149 85.1495 263.024 83.8478 260.04 83.8478C255.096 83.8478 251.132 85.5535 248.148 88.9649C245.257 92.3762 243.811 96.9995 243.811 102.835C243.811 108.58 245.257 113.203 248.148 116.705C251.132 120.116 254.863 121.822 259.34 121.822C261.579 121.822 263.77 121.373 265.916 120.475C268.061 119.488 270.019 118.321 271.791 116.974L279.906 129.901C276.455 132.774 272.724 134.839 268.714 136.095C264.703 137.263 260.786 137.846 256.962 137.846Z" fill="white"/>
<path d="M302.341 137.846C295.999 137.846 290.963 135.916 287.232 132.056C283.501 128.106 281.636 123.303 281.636 117.647C281.636 110.645 284.714 105.169 290.869 101.219C297.025 97.2688 306.958 94.6205 320.669 93.2739C320.482 90.3114 319.549 87.9774 317.871 86.2717C316.285 84.4762 313.58 83.5785 309.756 83.5785C306.865 83.5785 303.927 84.1171 300.942 85.1944C297.958 86.2717 294.787 87.7529 291.429 89.6381L284.014 76.5762C288.398 73.9728 293.061 71.8632 298.004 70.2473C303.041 68.6313 308.264 67.8234 313.673 67.8234C322.534 67.8234 329.343 70.2921 334.099 75.2296C338.856 80.1671 341.234 87.7529 341.234 97.987V136.23H324.446L323.047 129.363H322.487C319.596 131.876 316.471 133.941 313.114 135.557C309.849 137.083 306.259 137.846 302.341 137.846ZM309.336 122.495C311.668 122.495 313.673 122.001 315.352 121.014C317.124 119.936 318.896 118.545 320.669 116.839V105.124C313.394 106.022 308.357 107.458 305.559 109.433C302.761 111.318 301.362 113.563 301.362 116.166C301.362 118.321 302.061 119.936 303.461 121.014C304.953 122.001 306.911 122.495 309.336 122.495Z" fill="white"/>
<path d="M371.688 137.846C364.6 137.846 359.656 135.826 356.858 131.786C354.153 127.657 352.801 122.226 352.801 115.493V41.8342H373.367V116.301C373.367 118.365 373.74 119.802 374.486 120.61C375.325 121.418 376.165 121.822 377.004 121.822C377.471 121.822 377.844 121.822 378.123 121.822C378.497 121.732 378.963 121.642 379.522 121.552L382.041 136.23C380.922 136.679 379.476 137.038 377.704 137.307C376.025 137.667 374.02 137.846 371.688 137.846Z" fill="white"/>
<path d="M387.003 136.23V69.4393H407.568V136.23H387.003ZM397.215 59.6092C393.765 59.6092 390.966 58.6666 388.821 56.7814C386.676 54.8961 385.604 52.3825 385.604 49.2404C385.604 46.0984 386.676 43.5848 388.821 41.6995C390.966 39.8143 393.765 38.8717 397.215 38.8717C400.666 38.8717 403.464 39.8143 405.61 41.6995C407.755 43.5848 408.827 46.0984 408.827 49.2404C408.827 52.3825 407.755 54.8961 405.61 56.7814C403.464 58.6666 400.666 59.6092 397.215 59.6092Z" fill="white"/>
<path d="M419.838 136.23V69.4393H436.626L438.025 78.0575H438.585C441.476 75.2745 444.554 72.8955 447.818 70.9205C451.083 68.8558 455 67.8234 459.57 67.8234C464.513 67.8234 468.477 68.8109 471.462 70.7859C474.54 72.6711 476.965 75.4092 478.737 79.0001C481.815 75.9478 485.079 73.3444 488.53 71.1899C491.981 68.9455 495.992 67.8234 500.562 67.8234C508.023 67.8234 513.479 70.2472 516.93 75.095C520.475 79.8529 522.247 86.4063 522.247 94.7552V136.23H501.681V97.3137C501.681 92.466 500.982 89.1444 499.582 87.3489C498.277 85.5535 496.132 84.6558 493.147 84.6558C489.696 84.6558 485.732 86.8103 481.255 91.1194V136.23H460.689V97.3137C460.689 92.466 459.99 89.1444 458.591 87.3489C457.285 85.5535 455.14 84.6558 452.155 84.6558C448.704 84.6558 444.787 86.8103 440.404 91.1194V136.23H419.838Z" fill="white"/>
<path d="M565.023 137.846C558.401 137.846 552.432 136.455 547.115 133.672C541.799 130.889 537.602 126.894 534.524 121.687C531.446 116.48 529.907 110.196 529.907 102.835C529.907 95.5631 531.446 89.3239 534.524 84.1171C537.695 78.9103 541.799 74.9154 546.835 72.1325C551.872 69.2598 557.142 67.8234 562.644 67.8234C569.267 67.8234 574.723 69.2598 579.013 72.1325C583.397 74.9154 586.661 78.7308 588.806 83.5785C591.045 88.3364 592.164 93.7677 592.164 99.8722C592.164 101.578 592.071 103.284 591.884 104.989C591.698 106.605 591.511 107.817 591.325 108.625H549.773C550.706 113.473 552.805 117.064 556.069 119.398C559.333 121.642 563.251 122.764 567.821 122.764C572.764 122.764 577.754 121.283 582.79 118.321L589.646 130.305C586.102 132.639 582.138 134.48 577.754 135.826C573.37 137.173 569.127 137.846 565.023 137.846ZM549.633 95.5631H574.676C574.676 91.8825 573.743 88.8751 571.878 86.541C570.106 84.1171 567.168 82.9052 563.064 82.9052C559.893 82.9052 557.048 83.9825 554.53 86.137C552.012 88.2018 550.38 91.3438 549.633 95.5631Z" fill="white"/>
<path d="M600.546 136.23V69.4393H617.334L618.733 81.1546H619.293C621.811 76.666 624.842 73.3444 628.386 71.1899C631.931 68.9455 635.475 67.8234 639.019 67.8234C640.978 67.8234 642.61 67.9581 643.916 68.2274C645.221 68.4069 646.341 68.7211 647.273 69.17L643.916 86.2717C642.703 85.9126 641.491 85.6433 640.278 85.4637C639.159 85.2842 637.853 85.1944 636.361 85.1944C633.749 85.1944 630.998 86.137 628.107 88.0222C625.309 89.8177 622.977 92.9597 621.111 97.4484V136.23H600.546Z" fill="white"/>
<path d="M678.892 137.846C673.016 137.846 667.467 136.499 662.244 133.806C657.114 131.023 652.963 127.028 649.792 121.822C646.621 116.525 645.036 110.196 645.036 102.835C645.036 95.3836 646.621 89.0546 649.792 83.8478C652.963 78.641 657.114 74.691 662.244 71.9978C667.467 69.2149 673.016 67.8234 678.892 67.8234C684.768 67.8234 690.271 69.2149 695.4 71.9978C700.53 74.691 704.681 78.641 707.852 83.8478C711.023 89.0546 712.609 95.3836 712.609 102.835C712.609 110.196 711.023 116.525 707.852 121.822C704.681 127.028 700.53 131.023 695.4 133.806C690.271 136.499 684.768 137.846 678.892 137.846ZM678.892 121.822C683.089 121.822 686.26 120.116 688.405 116.705C690.551 113.203 691.623 108.58 691.623 102.835C691.623 96.9995 690.551 92.3762 688.405 88.9649C686.26 85.5535 683.089 83.8478 678.892 83.8478C674.602 83.8478 671.384 85.5535 669.239 88.9649C667.187 92.3762 666.161 96.9995 666.161 102.835C666.161 108.58 667.187 113.203 669.239 116.705C671.384 120.116 674.602 121.822 678.892 121.822Z" fill="white"/>
<path fill-rule="evenodd" clip-rule="evenodd" d="M13.5969 23.2235C63.4924 -4.81833 123.53 2.55678 148.374 10.0273C153.006 11.4201 155.606 16.2198 154.181 20.7478C152.757 25.2758 147.846 27.8173 143.214 26.4245C120.866 19.7045 66.3988 13.3369 22.3442 38.0961C21.3748 38.6409 20.8298 39.6384 20.8808 40.6778C22.5544 74.7376 40.6646 139.735 103.059 173.709C107.293 176.015 108.813 181.238 106.455 185.377C104.096 189.516 98.7523 191.002 94.5186 188.696C24.7767 150.721 5.18199 78.7606 3.35124 41.5008C2.98177 33.9812 6.96683 26.9496 13.5969 23.2235Z" fill="white"/>
<path fill-rule="evenodd" clip-rule="evenodd" d="M180.214 22.5271C185.054 22.2785 189.183 25.9121 189.437 30.6429C192.776 92.7591 159.782 138.316 138.517 157.587C133.185 162.419 125.221 164.303 117.934 161.241C102.817 154.887 88.1835 141.52 76.3001 128.189C64.2403 114.66 54.1712 100.2 48.3006 90.492C45.8345 86.4139 47.2173 81.1537 51.3891 78.743C55.561 76.3323 60.9421 77.684 63.4082 81.7621C68.803 90.6832 78.2588 104.272 89.5315 116.919C100.981 129.763 113.488 140.698 124.866 145.48C125.179 145.612 125.851 145.671 126.586 145.006C145.206 128.132 174.903 87.1988 171.912 31.5431C171.657 26.8122 175.374 22.7756 180.214 22.5271Z" fill="white"/>
<path fill-rule="evenodd" clip-rule="evenodd" d="M85.9137 55.4487C70.263 57.0264 57.2007 60.7039 50.4014 63.4262C45.9168 65.2218 40.7922 63.1236 38.9553 58.7397C37.1184 54.3559 39.2649 49.3464 43.7495 47.5508C52.2083 44.164 66.9167 40.1173 84.1135 38.3837C101.323 36.649 121.62 37.1693 140.947 43.4423C149.244 46.1351 155.088 53.9217 154.482 62.8728C153.225 81.429 144.514 100.403 127.158 122.145C124.177 125.88 118.663 126.546 114.842 123.631C111.021 120.717 110.341 115.327 113.322 111.592C129.481 91.3484 136.032 75.6017 136.971 61.7394C137.02 61.0029 136.547 60.0904 135.417 59.7238C119.18 54.4537 101.552 53.8722 85.9137 55.4487Z" fill="white"/>
<path fill-rule="evenodd" clip-rule="evenodd" d="M11.9244 20.4427C62.9355 -8.22612 124.041 -0.658307 149.363 6.95578C155.769 8.88216 159.314 15.4905 157.365 21.6839C155.411 27.8919 148.649 31.4272 142.226 29.496C131.415 26.2451 112.581 23.0186 91.0232 23.6707C69.5437 24.3205 45.5807 28.8137 24.2167 40.7648C25.9345 74.3004 43.8324 137.768 104.692 170.907C110.532 174.087 112.6 181.26 109.369 186.929C106.127 192.618 98.7475 194.691 92.8855 191.499C21.7513 152.765 1.88681 79.4964 0.0274038 41.6534C-0.400866 32.9372 4.21858 24.7734 11.9244 20.4427ZM18.1387 24.4374L20.8633 29.07C21.7716 30.6143 21.2128 32.5781 19.6152 33.4561C18.0175 34.3341 15.9861 33.794 15.0778 32.2496L12.5287 27.9155C8.64114 31.2331 6.41953 36.1473 6.67508 41.3482C8.47717 78.0248 27.8021 148.676 96.1517 185.894C98.7572 187.313 102.065 186.413 103.54 183.825C105.026 181.217 104.053 177.943 101.426 176.512C37.6421 141.781 19.2594 75.4781 17.557 40.8304C17.4473 38.5987 18.6227 36.4668 20.6716 35.3153C43.3119 22.5912 68.5273 17.9147 90.8151 17.2405C113.092 16.5666 132.666 19.8839 144.203 23.353C147.044 24.2074 150.102 22.6596 150.998 19.8117C151.899 16.9492 150.243 13.958 147.386 13.0988C123.495 5.91496 66.3394 -1.12995 18.1387 24.4374ZM180.037 19.3149C186.748 18.9702 192.412 24.0034 192.76 30.476C196.164 93.7895 162.559 140.209 140.793 159.933C134.597 165.548 125.238 167.818 116.607 164.191C100.779 157.538 85.7435 143.711 73.7792 130.289C61.5714 116.593 51.3874 101.971 45.4278 92.1153C42.0491 86.528 43.9291 79.3062 49.6818 75.982C55.4567 72.645 62.8897 74.5307 66.281 80.1388C71.5868 88.9128 80.9276 102.339 92.0523 114.819C103.005 127.106 114.64 137.276 125.014 142.014C143.171 125.208 171.478 85.4697 168.588 31.71C168.241 25.2402 173.329 19.6595 180.037 19.3149ZM186.114 30.8098C185.953 27.8207 183.359 25.5867 180.391 25.7392C177.419 25.8918 175.074 28.3843 175.235 31.3762C178.291 88.2274 147.984 130.024 128.862 147.352C127.184 148.873 125.102 149.087 123.539 148.43C111.449 143.349 98.5392 131.951 87.0107 119.018C75.59 106.206 66.0192 92.4537 60.5355 83.3854C58.9946 80.8373 55.6653 80.0196 53.0965 81.5039C50.5054 83.0012 49.6199 86.2997 51.1734 88.8687C56.9551 98.4297 66.9091 112.726 78.8209 126.089C90.6235 139.33 104.854 152.236 119.261 158.291C125.203 160.788 131.773 159.289 136.241 155.24C157.006 136.423 189.389 91.7288 186.114 30.8098ZM83.7683 35.1844C101.279 33.4193 122.088 33.9281 142.007 40.3929C151.67 43.5294 158.512 52.6106 157.802 63.083C156.487 82.5101 147.374 102.085 129.793 124.11C125.686 129.256 118.062 130.185 112.781 126.157C107.522 122.145 106.597 114.751 110.688 109.627C126.216 90.173 132.452 75.2928 133.573 62.5224C118.14 57.6757 101.34 57.1278 86.2589 58.648C70.9046 60.1958 58.1573 63.8025 51.6748 66.3981C45.4595 68.8866 38.3922 65.9642 35.8711 59.9473C33.3574 53.9482 36.2803 47.0598 42.4762 44.579C51.2518 41.0654 66.2751 36.9478 83.7683 35.1844ZM139.888 46.4917C121.152 40.4106 101.366 39.8786 84.4586 41.583C67.5583 43.2867 53.1649 47.2627 45.0229 50.5227C42.2495 51.6331 40.8794 54.7636 42.0395 57.5322C43.1921 60.283 46.374 61.5571 49.128 60.4544C56.2441 57.6052 69.6214 53.857 85.5686 52.2494C101.508 50.6425 119.647 51.2125 136.477 56.6744C139.043 57.5075 140.439 59.7624 140.291 61.9496C139.293 76.6823 132.341 93.0303 115.957 113.557C114.084 115.903 114.521 119.289 116.903 121.106C119.264 122.906 122.669 122.505 124.524 120.18C141.653 98.7202 149.964 80.3479 151.161 62.6627C151.665 55.2328 146.818 48.7408 139.888 46.4917Z" fill="white"/>
</svg>