<svg width="259" height="70" viewBox="0 0 259 70" fill="none" xmlns="http://www.w3.org/2000/svg">
<path d="M93.1984 49.997C90.8643 49.997 88.75 49.5086 86.8556 48.5318C84.9951 47.5225 83.5067 46.0736 82.3904 44.1851C81.3079 42.264 80.7666 39.9686 80.7666 37.2986C80.7666 34.5962 81.3755 32.3007 82.5933 30.4122C83.8111 28.5237 85.418 27.0911 87.4138 26.1143C89.4097 25.1049 91.5577 24.6002 93.858 24.6002C95.4141 24.6002 96.7842 24.8444 97.9681 25.3328C99.1859 25.8212 100.268 26.4399 101.216 27.1887L97.7144 31.8286C96.5304 30.8843 95.3972 30.4122 94.3147 30.4122C92.5218 30.4122 91.0841 31.0308 90.0016 32.2681C88.953 33.5054 88.4286 35.1822 88.4286 37.2986C88.4286 39.3825 88.953 41.0593 90.0016 42.3292C91.0841 43.5664 92.4373 44.1851 94.061 44.1851C94.8729 44.1851 95.6678 44.0223 96.4459 43.6967C97.2239 43.3385 97.9343 42.9152 98.577 42.4268L101.52 47.1155C100.268 48.1574 98.9153 48.9063 97.4607 49.3621C96.0061 49.7854 94.5853 49.997 93.1984 49.997Z" fill="white"/>
<path d="M109.657 49.997C107.357 49.997 105.53 49.297 104.177 47.8969C102.824 46.4643 102.147 44.7223 102.147 42.671C102.147 40.1314 103.264 38.1452 105.496 36.7126C107.729 35.2799 111.332 34.3194 116.304 33.831C116.237 32.7565 115.899 31.91 115.29 31.2913C114.715 30.6401 113.734 30.3145 112.347 30.3145C111.298 30.3145 110.232 30.5099 109.15 30.9006C108.067 31.2913 106.917 31.8286 105.699 32.5123L103.01 27.7748C104.6 26.8306 106.291 26.0654 108.084 25.4793C109.911 24.8933 111.805 24.6002 113.767 24.6002C116.981 24.6002 119.45 25.4956 121.176 27.2864C122.901 29.0772 123.764 31.8285 123.764 35.5404V49.411H117.675L117.167 46.9201H116.964C115.915 47.8318 114.782 48.5807 113.564 49.1668C112.38 49.7203 111.078 49.997 109.657 49.997ZM112.194 44.4293C113.04 44.4293 113.767 44.2502 114.376 43.892C115.019 43.5013 115.662 42.9966 116.304 42.378V38.1289C113.666 38.4545 111.839 38.9755 110.824 39.6918C109.81 40.3756 109.302 41.1896 109.302 42.1338C109.302 42.9152 109.556 43.5013 110.063 43.892C110.604 44.2502 111.315 44.4293 112.194 44.4293Z" fill="white"/>
<path d="M134.809 49.997C132.238 49.997 130.445 49.2644 129.43 47.7992C128.449 46.3015 127.959 44.3316 127.959 41.8896V15.1741H135.418V42.1826C135.418 42.9315 135.553 43.4525 135.824 43.7455C136.128 44.0386 136.433 44.1851 136.737 44.1851C136.906 44.1851 137.042 44.1851 137.143 44.1851C137.278 44.1525 137.448 44.12 137.65 44.0874L138.564 49.411C138.158 49.5738 137.634 49.704 136.991 49.8017C136.382 49.9319 135.655 49.997 134.809 49.997Z" fill="white"/>
<path d="M140.363 49.411V25.1863H147.823V49.411H140.363ZM144.068 21.621C142.816 21.621 141.801 21.2791 141.023 20.5953C140.245 19.9116 139.856 18.9999 139.856 17.8603C139.856 16.7207 140.245 15.809 141.023 15.1253C141.801 14.4415 142.816 14.0996 144.068 14.0996C145.319 14.0996 146.334 14.4415 147.112 15.1253C147.89 15.809 148.279 16.7207 148.279 17.8603C148.279 18.9999 147.89 19.9116 147.112 20.5953C146.334 21.2791 145.319 21.621 144.068 21.621Z" fill="white"/>
<path d="M152.273 49.411V25.1863H158.362L158.869 28.3121H159.072C160.121 27.3027 161.237 26.4399 162.421 25.7235C163.605 24.9747 165.026 24.6002 166.683 24.6002C168.476 24.6002 169.914 24.9584 170.996 25.6747C172.113 26.3585 172.992 27.3515 173.635 28.6539C174.751 27.5469 175.935 26.6027 177.187 25.8212C178.439 25.0072 179.893 24.6002 181.551 24.6002C184.257 24.6002 186.236 25.4793 187.488 27.2376C188.773 28.9633 189.416 31.3401 189.416 34.3682V49.411H181.957V35.2962C181.957 33.538 181.703 32.3332 181.196 31.682C180.722 31.0308 179.944 30.7052 178.861 30.7052C177.61 30.7052 176.172 31.4867 174.548 33.0496V49.411H167.089V35.2962C167.089 33.538 166.836 32.3332 166.328 31.682C165.855 31.0308 165.077 30.7052 163.994 30.7052C162.742 30.7052 161.322 31.4867 159.732 33.0496V49.411H152.273Z" fill="white"/>
<path d="M204.93 49.997C202.529 49.997 200.364 49.4924 198.435 48.483C196.507 47.4736 194.985 46.0247 193.869 44.1362C192.752 42.2478 192.194 39.9686 192.194 37.2986C192.194 34.6613 192.752 32.3984 193.869 30.5099C195.019 28.6214 196.507 27.1725 198.334 26.1631C200.161 25.1212 202.072 24.6002 204.068 24.6002C206.47 24.6002 208.448 25.1212 210.005 26.1631C211.594 27.1725 212.778 28.5563 213.557 30.3145C214.368 32.0402 214.774 34.0101 214.774 36.2242C214.774 36.8428 214.741 37.4614 214.673 38.0801C214.605 38.6662 214.538 39.1057 214.47 39.3988H199.4C199.738 41.157 200.499 42.4594 201.683 43.306C202.867 44.12 204.288 44.527 205.945 44.527C207.738 44.527 209.548 43.9897 211.375 42.9152L213.861 47.262C212.576 48.1086 211.138 48.776 209.548 49.2644C207.958 49.7528 206.419 49.997 204.93 49.997ZM199.349 34.6613H208.432C208.432 33.3263 208.093 32.2356 207.417 31.389C206.774 30.5099 205.708 30.0703 204.22 30.0703C203.07 30.0703 202.038 30.461 201.125 31.2425C200.211 31.9914 199.619 33.131 199.349 34.6613Z" fill="white"/>
<path d="M217.814 49.411V25.1863H223.903L224.411 29.4354H224.614C225.527 27.8074 226.627 26.6027 227.912 25.8212C229.197 25.0072 230.483 24.6002 231.768 24.6002C232.479 24.6002 233.071 24.6491 233.544 24.7467C234.018 24.8119 234.424 24.9258 234.762 25.0886L233.544 31.2913C233.105 31.1611 232.665 31.0634 232.225 30.9983C231.819 30.9331 231.346 30.9006 230.804 30.9006C229.857 30.9006 228.859 31.2425 227.811 31.9262C226.796 32.5774 225.95 33.717 225.273 35.345V49.411H217.814Z" fill="white"/>
<path d="M246.23 49.997C244.099 49.997 242.086 49.5086 240.192 48.5318C238.331 47.5225 236.826 46.0736 235.676 44.1851C234.526 42.264 233.951 39.9686 233.951 37.2986C233.951 34.5962 234.526 32.3007 235.676 30.4122C236.826 28.5237 238.331 27.0911 240.192 26.1143C242.086 25.1049 244.099 24.6002 246.23 24.6002C248.361 24.6002 250.357 25.1049 252.218 26.1143C254.078 27.0911 255.584 28.5237 256.734 30.4122C257.884 32.3007 258.459 34.5962 258.459 37.2986C258.459 39.9686 257.884 42.264 256.734 44.1851C255.584 46.0736 254.078 47.5225 252.218 48.5318C250.357 49.5086 248.361 49.997 246.23 49.997ZM246.23 44.1851C247.752 44.1851 248.903 43.5664 249.681 42.3292C250.459 41.0593 250.848 39.3825 250.848 37.2986C250.848 35.1822 250.459 33.5054 249.681 32.2681C248.903 31.0308 247.752 30.4122 246.23 30.4122C244.674 30.4122 243.507 31.0308 242.729 32.2681C241.985 33.5054 241.613 35.1822 241.613 37.2986C241.613 39.3825 241.985 41.0593 242.729 42.3292C243.507 43.5664 244.674 44.1851 246.23 44.1851Z" fill="white"/>
<path fill-rule="evenodd" clip-rule="evenodd" d="M4.93151 8.42303C23.0283 -1.74758 44.8036 0.927329 53.8145 3.63683C55.4945 4.142 56.4375 5.88285 55.9207 7.52511C55.4039 9.16738 53.6231 10.0892 51.9431 9.58401C43.8374 7.14671 24.0825 4.83723 8.1041 13.8172C7.75253 14.0148 7.55484 14.3766 7.57336 14.7536C8.18034 27.1069 14.7488 50.6809 37.3789 63.0034C38.9144 63.8395 39.4658 65.7341 38.6105 67.2352C37.7551 68.7362 35.8169 69.2752 34.2814 68.4391C8.98637 54.6656 1.87948 28.566 1.21548 15.0521C1.08147 12.3248 2.52683 9.77448 4.93151 8.42303Z" fill="white"/>
<path fill-rule="evenodd" clip-rule="evenodd" d="M65.3626 8.17044C67.1179 8.08028 68.6156 9.39816 68.7078 11.114C69.9188 33.6432 57.9521 50.1665 50.2393 57.1558C48.3053 58.9083 45.4168 59.5918 42.7741 58.4811C37.291 56.1766 31.9836 51.3285 27.6736 46.4934C23.2996 41.5864 19.6476 36.342 17.5184 32.8209C16.6239 31.3418 17.1254 29.434 18.6385 28.5596C20.1517 27.6853 22.1034 28.1755 22.9978 29.6547C24.9545 32.8903 28.384 37.819 32.4726 42.4057C36.6251 47.0642 41.1613 51.0304 45.2883 52.7649C45.4018 52.8126 45.6456 52.834 45.9119 52.5927C52.6653 46.4729 63.4364 31.6265 62.3513 11.4405C62.2591 9.72465 63.6073 8.2606 65.3626 8.17044Z" fill="white"/>
<path fill-rule="evenodd" clip-rule="evenodd" d="M31.1604 20.1109C25.484 20.6831 20.7464 22.017 18.2803 23.0043C16.6537 23.6556 14.7951 22.8946 14.1289 21.3046C13.4626 19.7146 14.2411 17.8977 15.8677 17.2464C18.9357 16.018 24.2703 14.5503 30.5075 13.9216C36.7491 13.2924 44.1108 13.4811 51.1208 15.7563C54.13 16.7329 56.2496 19.5571 56.0297 22.8036C55.5739 29.5338 52.4142 36.4155 46.1196 44.3014C45.0383 45.6561 43.0384 45.8974 41.6526 44.8404C40.2668 43.7834 40.02 41.8284 41.1013 40.4738C46.9619 33.1316 49.3379 27.4203 49.6784 22.3925C49.6965 22.1254 49.5248 21.7944 49.1151 21.6615C43.2257 19.75 36.8324 19.5392 31.1604 20.1109Z" fill="white"/>
<path fill-rule="evenodd" clip-rule="evenodd" d="M4.32491 7.41444C22.8263 -2.98357 44.9889 -0.238764 54.173 2.52282C56.4965 3.22151 57.7822 5.61832 57.0754 7.86464C56.3668 10.1162 53.914 11.3985 51.5846 10.698C47.6634 9.51895 40.8324 8.3487 33.0136 8.58522C25.2231 8.82089 16.5319 10.4506 8.78326 14.7851C9.4063 26.9483 15.8977 49.9675 37.9712 61.9869C40.0893 63.1402 40.8392 65.7421 39.6676 67.7981C38.4918 69.8615 35.8151 70.6133 33.689 69.4556C7.88907 55.4071 0.684335 28.8329 0.00993921 15.1075C-0.145392 11.9461 1.53005 8.98517 4.32491 7.41444ZM6.57879 8.86332L7.56699 10.5435C7.89643 11.1036 7.69375 11.8159 7.11431 12.1343C6.53486 12.4528 5.79806 12.2569 5.46862 11.6967L4.54408 10.1248C3.13409 11.3281 2.32833 13.1104 2.42101 14.9968C3.07462 28.2991 10.0837 53.924 34.8737 67.4226C35.8187 67.9372 37.0185 67.6109 37.5533 66.6723C38.0924 65.7262 37.7395 64.5388 36.7865 64.0199C13.6526 51.423 6.98528 27.3755 6.36783 14.8089C6.32805 13.9995 6.75436 13.2263 7.49749 12.8087C15.709 8.1937 24.8545 6.49758 32.9381 6.25304C41.0178 6.00863 48.1171 7.21177 52.3015 8.47C53.3321 8.7799 54.441 8.21852 54.7661 7.18559C55.0928 6.14737 54.4925 5.0625 53.456 4.75084C44.791 2.14532 24.0609 -0.409825 6.57879 8.86332ZM65.2985 7.00542C67.7326 6.8804 69.7869 8.7059 69.9131 11.0535C71.1474 34.0169 58.959 50.8531 51.0647 58.0069C48.8175 60.0433 45.4233 60.8667 42.2928 59.551C36.5519 57.1381 31.0987 52.123 26.7593 47.2549C22.3316 42.2877 18.6379 36.9841 16.4764 33.4097C15.251 31.3832 15.9328 28.7639 18.0193 27.5582C20.1138 26.3479 22.8097 27.0319 24.0397 29.0659C25.9641 32.2482 29.352 37.1177 33.3869 41.6441C37.3594 46.1007 41.5793 49.7894 45.342 51.5075C51.9272 45.412 62.1942 30.9994 61.1461 11.501C61.0199 9.15448 62.8656 7.13038 65.2985 7.00542ZM67.5025 11.1745C67.4443 10.0904 66.5031 9.28017 65.4266 9.33546C64.349 9.39081 63.4983 10.2948 63.5566 11.38C64.665 31.9996 53.6728 47.159 46.7373 53.4438C46.1288 53.9953 45.3736 54.0729 44.807 53.8348C40.4219 51.9917 35.7396 47.8581 31.5583 43.1673C27.416 38.5203 23.9448 33.5324 21.9559 30.2434C21.397 29.3192 20.1895 29.0226 19.2578 29.561C18.318 30.1041 17.9968 31.3004 18.5603 32.2322C20.6573 35.6999 24.2676 40.885 28.5879 45.7318C32.8686 50.5341 38.0301 55.2151 43.2553 57.4112C45.4103 58.317 47.7932 57.7733 49.4138 56.3046C56.9452 49.4798 68.6902 33.2695 67.5025 11.1745ZM30.3823 12.7612C36.7332 12.121 44.2805 12.3055 51.505 14.6503C55.01 15.7879 57.4913 19.0816 57.234 22.8798C56.7568 29.926 53.4515 37.0257 47.0751 45.0141C45.5854 46.8804 42.8205 47.2173 40.905 45.7563C38.9976 44.3014 38.6623 41.6196 40.1457 39.7611C45.7778 32.7052 48.0395 27.3083 48.4461 22.6765C42.8488 20.9187 36.7553 20.7199 31.2856 21.2713C25.7167 21.8327 21.0933 23.1408 18.7421 24.0822C16.4879 24.9848 13.9246 23.9248 13.0102 21.7426C12.0985 19.5667 13.1586 17.0683 15.4059 16.1686C18.5887 14.8942 24.0376 13.4008 30.3823 12.7612ZM50.7367 16.8623C43.9411 14.6567 36.765 14.4638 30.6327 15.0819C24.503 15.6998 19.2826 17.1419 16.3295 18.3243C15.3237 18.727 14.8267 19.8624 15.2475 20.8666C15.6655 21.8643 16.8196 22.3264 17.8185 21.9265C20.3994 20.8931 25.2513 19.5336 31.0352 18.9506C36.8165 18.3678 43.3955 18.5745 49.4993 20.5555C50.4302 20.8577 50.9365 21.6755 50.8827 22.4688C50.5208 27.8122 47.9994 33.7416 42.0568 41.1865C41.3777 42.0372 41.5361 43.2654 42.4002 43.9245C43.2562 44.5774 44.4912 44.4317 45.1641 43.5887C51.3769 35.8053 54.3909 29.1417 54.8254 22.7274C55.0079 20.0326 53.2501 17.678 50.7367 16.8623Z" fill="white"/>
</svg>
