<svg width="539" height="434" viewBox="0 0 539 434" fill="none" xmlns="http://www.w3.org/2000/svg">
<path d="M256.5 429C367.233 429 457 339.233 457 228.5C457 117.767 367.233 28 256.5 28C145.767 28 56 117.767 56 228.5C56 339.233 145.767 429 256.5 429Z" stroke="white" stroke-opacity="0.09" stroke-width="1.39699" stroke-linecap="round" stroke-linejoin="round"/>
<path d="M256.499 413.043C358.42 413.043 441.043 330.42 441.043 228.499C441.043 126.579 358.42 43.9561 256.499 43.9561C154.579 43.9561 71.9561 126.579 71.9561 228.499C71.9561 330.42 154.579 413.043 256.499 413.043Z" stroke="white" stroke-opacity="0.09" stroke-width="1.39699" stroke-linecap="round" stroke-linejoin="round"/>
<path d="M256.501 397.082C349.605 397.082 425.082 321.605 425.082 228.501C425.082 135.396 349.605 59.9199 256.501 59.9199C163.396 59.9199 87.9199 135.396 87.9199 228.501C87.9199 321.605 163.396 397.082 256.501 397.082Z" stroke="white" stroke-opacity="0.09" stroke-width="1.39699" stroke-linecap="round" stroke-linejoin="round"/>
<path d="M256.5 381.125C340.792 381.125 409.125 312.792 409.125 228.5C409.125 144.208 340.792 75.876 256.5 75.876C172.208 75.876 103.876 144.208 103.876 228.5C103.876 312.792 172.208 381.125 256.5 381.125Z" stroke="white" stroke-opacity="0.09" stroke-width="1.39699" stroke-linecap="round" stroke-linejoin="round"/>
<path d="M256.501 365.162C331.977 365.162 393.162 303.977 393.162 228.501C393.162 153.024 331.977 91.8389 256.501 91.8389C181.024 91.8389 119.839 153.024 119.839 228.501C119.839 303.977 181.024 365.162 256.501 365.162Z" stroke="white" stroke-opacity="0.09" stroke-width="1.39699" stroke-linecap="round" stroke-linejoin="round"/>
<path d="M256.501 349.203C323.165 349.203 377.206 295.162 377.206 228.498C377.206 161.835 323.165 107.793 256.501 107.793C189.837 107.793 135.796 161.835 135.796 228.498C135.796 295.162 189.837 349.203 256.501 349.203Z" stroke="white" stroke-opacity="0.09" stroke-width="1.39699" stroke-linecap="round" stroke-linejoin="round"/>
<path d="M256.5 333.243C314.348 333.243 361.243 286.348 361.243 228.5C361.243 170.653 314.348 123.758 256.5 123.758C198.653 123.758 151.758 170.653 151.758 228.5C151.758 286.348 198.653 333.243 256.5 333.243Z" stroke="white" stroke-opacity="0.09" stroke-width="1.39699" stroke-linecap="round" stroke-linejoin="round"/>
<path d="M256.499 317.285C305.534 317.285 345.285 277.534 345.285 228.499C345.285 179.464 305.534 139.713 256.499 139.713C207.464 139.713 167.713 179.464 167.713 228.499C167.713 277.534 207.464 317.285 256.499 317.285Z" stroke="white" stroke-opacity="0.09" stroke-width="1.39699" stroke-linecap="round" stroke-linejoin="round"/>
<path d="M256.499 301.323C296.719 301.323 329.323 268.719 329.323 228.499C329.323 188.28 296.719 155.676 256.499 155.676C216.28 155.676 183.676 188.28 183.676 228.499C183.676 268.719 216.28 301.323 256.499 301.323Z" stroke="white" stroke-opacity="0.09" stroke-width="1.39699" stroke-linecap="round" stroke-linejoin="round"/>
<path d="M256.501 285.366C287.907 285.366 313.368 259.905 313.368 228.499C313.368 197.092 287.907 171.632 256.501 171.632C225.094 171.632 199.634 197.092 199.634 228.499C199.634 259.905 225.094 285.366 256.501 285.366Z" stroke="white" stroke-opacity="0.09" stroke-width="1.39699" stroke-linecap="round" stroke-linejoin="round"/>
<path d="M256.499 269.403C279.09 269.403 297.403 251.09 297.403 228.499C297.403 205.908 279.09 187.595 256.499 187.595C233.908 187.595 215.595 205.908 215.595 228.499C215.595 251.09 233.908 269.403 256.499 269.403Z" stroke="white" stroke-opacity="0.09" stroke-width="1.39699" stroke-linecap="round" stroke-linejoin="round"/>
<path d="M256.501 253.448C270.279 253.448 281.448 242.279 281.448 228.501C281.448 214.722 270.279 203.553 256.501 203.553C242.722 203.553 231.553 214.722 231.553 228.501C231.553 242.279 242.722 253.448 256.501 253.448Z" stroke="white" stroke-opacity="0.09" stroke-width="1.39699" stroke-linecap="round" stroke-linejoin="round"/>
<path d="M358 384V318.978L367.839 307H425.161L435 318.978V384H358ZM368.267 319.833H424.733L421.097 315.556H371.903L368.267 319.833ZM410.189 351.917L401.206 360.9L407.408 367.103L422.594 351.917L407.408 336.731L401.206 342.933L410.189 351.917ZM383.025 351.917L392.008 342.933L385.806 336.731L370.619 351.917L385.806 367.103L392.008 360.9L383.025 351.917Z" fill="white"/>
<path d="M76.4743 112.783L92.2757 65.4942L102.342 59.1742L144.031 73.1044L148.275 84.2064L132.474 131.495L76.4743 112.783ZM99.5344 68.6114L140.601 82.3337L138.996 78.339L103.218 66.384L99.5344 68.6114ZM122.226 102.132L113.51 106.482L116.514 112.501L131.248 105.147L123.895 90.4122L117.876 93.4159L122.226 102.132ZM102.471 95.5311L111.187 91.1809L108.184 85.1624L93.4488 92.5163L100.803 107.251L106.821 104.247L102.471 95.5311Z" fill="white"/>
<path d="M132.873 359.49L125.388 337.013L127.41 331.74L147.224 325.141L152.004 328.149L159.49 350.625L132.873 359.49ZM129.035 336.127L148.554 329.627L146.805 328.566L129.8 334.23L129.035 336.127ZM147.22 342.391L145.149 346.531L148.007 347.961L151.508 340.963L144.51 337.462L143.08 340.32L147.22 342.391ZM137.83 345.518L139.901 341.379L137.043 339.949L133.542 346.947L140.54 350.448L141.97 347.589L137.83 345.518Z" fill="white"/>
<path d="M342.576 115.529L344.582 91.9245L348.523 87.8796L369.333 89.6474L372.535 94.2992L370.53 117.904L342.576 115.529ZM348.282 92.5517L368.782 94.2931L367.593 92.628L349.734 91.1109L348.282 92.5517ZM362.512 105.492L358.974 108.476L361.034 110.919L367.016 105.874L361.971 99.893L359.528 101.953L362.512 105.492ZM352.651 104.654L356.189 101.67L354.129 99.2268L348.147 104.271L353.192 110.253L355.635 108.192L352.651 104.654Z" fill="white"/>
<g filter="url(#filter0_f_1664_4209)">
<path d="M65.3249 220.5C65.3249 168.39 107.471 123.637 159.39 128.096C192.564 130.946 228.36 133.225 258 133.225C287.64 133.225 323.436 130.946 356.61 128.096C408.529 123.637 450.675 168.39 450.675 220.5V220.5V220.5C450.675 271.785 407.979 315.381 357.008 309.72C323.743 306.025 287.791 303.064 258 303.064C228.209 303.064 192.257 306.025 158.992 309.72C108.02 315.381 65.3249 271.785 65.3249 220.5V220.5V220.5Z" fill="url(#paint0_radial_1664_4209)"/>
</g>
<rect x="193.5" y="162.5" width="132" height="132" rx="15.5" fill="#2D2D38"/>
<rect x="193.5" y="162.5" width="132" height="132" rx="15.5" stroke="#6CECAC"/>
<path d="M301 208H294.85L283.429 227.329V208H277.571V249H283.429V236.407L286.064 232.014L294.85 249H301L289.579 226.743L301 208ZM260 249H248.286V208H260C263.104 208.008 266.08 209.244 268.275 211.44C270.47 213.635 271.707 216.61 271.714 219.714V237.286C271.707 240.39 270.47 243.365 268.275 245.56C266.08 247.756 263.104 248.992 260 249ZM254.143 243.143H260C261.552 243.138 263.039 242.52 264.137 241.422C265.234 240.325 265.853 238.838 265.857 237.286V219.714C265.853 218.162 265.234 216.675 264.137 215.578C263.039 214.48 261.552 213.862 260 213.857H254.143V243.143ZM236.571 249H219V243.143H236.571V231.429H224.857C223.305 231.424 221.818 230.805 220.721 229.708C219.623 228.611 219.005 227.123 219 225.571V213.857C219.005 212.305 219.623 210.818 220.721 209.721C221.818 208.623 223.305 208.005 224.857 208H242.429V213.857H224.857V225.571H236.571C238.123 225.576 239.611 226.195 240.708 227.292C241.805 228.389 242.424 229.877 242.429 231.429V243.143C242.424 244.695 241.805 246.182 240.708 247.279C239.611 248.377 238.123 248.995 236.571 249Z" fill="#6CECAC"/>
<defs>
<filter id="filter0_f_1664_4209" x="44.3883" y="106.852" width="427.223" height="224.301" filterUnits="userSpaceOnUse" color-interpolation-filters="sRGB">
<feFlood flood-opacity="0" result="BackgroundImageFix"/>
<feBlend mode="normal" in="SourceGraphic" in2="BackgroundImageFix" result="shape"/>
<feGaussianBlur stdDeviation="10.4685" result="effect1_foregroundBlur_1664_4209"/>
</filter>
<radialGradient id="paint0_radial_1664_4209" cx="0" cy="0" r="1" gradientUnits="userSpaceOnUse" gradientTransform="translate(258 220.5) scale(184.866 454.662)">
<stop offset="0.484375" stop-color="#4959EC" stop-opacity="0"/>
<stop offset="0.864583" stop-color="#4959EC" stop-opacity="0.05"/>
<stop offset="1" stop-color="#4959EC" stop-opacity="0.1"/>
</radialGradient>
</defs>
</svg>
