<svg width="539" height="434" viewBox="0 0 539 434" fill="none" xmlns="http://www.w3.org/2000/svg">
<path d="M50.6055 221.071L54.2473 220.739C101.095 216.511 148.334 220.91 193.542 233.712V233.712" stroke="#6CECAC" stroke-opacity="0.25" stroke-width="1.39699" stroke-miterlimit="10"/>
<path d="M52.7246 204.769H56.3665C103.422 204.683 150.08 213.23 193.948 229.971V229.971" stroke="#6CECAC" stroke-opacity="0.25" stroke-width="1.39699" stroke-miterlimit="10"/>
<path d="M56.2988 188.72L59.9407 189.038C106.806 193.101 152.49 205.724 194.649 226.258V226.258" stroke="#6CECAC" stroke-opacity="0.25" stroke-width="1.39699" stroke-miterlimit="10"/>
<path d="M61.3438 173.055L64.9317 173.691C111.26 181.864 155.631 198.463 195.769 222.636V222.636" stroke="#6CECAC" stroke-opacity="0.25" stroke-width="1.39699" stroke-miterlimit="10"/>
<path d="M67.7773 157.894L71.2978 158.835C116.67 171.069 159.325 191.514 197.077 219.121V219.121" stroke="#6CECAC" stroke-opacity="0.25" stroke-width="1.39699" stroke-miterlimit="10"/>
<path d="M75.5762 143.356L79.0022 144.683C123.076 160.864 163.695 184.984 198.779 215.806V215.806" stroke="#6CECAC" stroke-opacity="0.25" stroke-width="1.39699" stroke-miterlimit="10"/>
<path d="M84.6641 129.574L87.9552 131.166C130.38 151.167 168.64 178.773 200.772 212.569V212.569" stroke="#6CECAC" stroke-opacity="0.25" stroke-width="1.39699" stroke-miterlimit="10"/>
<path d="M94.9834 116.643L98.1127 118.473C138.541 142.136 174.129 173.003 203.052 209.492V209.492" stroke="#6CECAC" stroke-opacity="0.25" stroke-width="1.39699" stroke-miterlimit="10"/>
<path d="M106.423 104.638L109.377 106.733C147.488 133.865 180.121 167.746 205.603 206.64V206.64" stroke="#6CECAC" stroke-opacity="0.25" stroke-width="1.39699" stroke-miterlimit="10"/>
<path d="M118.912 93.7607L121.61 96.1218C157.096 126.495 186.509 163.112 208.34 204.093V204.093" stroke="#6CECAC" stroke-opacity="0.25" stroke-width="1.39699" stroke-miterlimit="10"/>
<path d="M132.361 83.999L134.857 86.5856C167.427 119.969 193.382 159.032 211.39 201.772V201.772" stroke="#6CECAC" stroke-opacity="0.25" stroke-width="1.39699" stroke-miterlimit="10"/>
<path d="M146.632 75.4561L148.911 78.2548C178.307 114.378 200.597 155.573 214.64 199.729V199.729" stroke="#6CECAC" stroke-opacity="0.25" stroke-width="1.39699" stroke-miterlimit="10"/>
<path d="M161.629 68.2012L163.639 71.1989C189.624 109.767 208.067 152.762 218.024 197.979V197.979" stroke="#6CECAC" stroke-opacity="0.25" stroke-width="1.39699" stroke-miterlimit="10"/>
<path d="M177.223 62.2979L178.949 65.4547C201.316 106.157 215.766 150.605 221.559 196.519" stroke="#6CECAC" stroke-opacity="0.25" stroke-width="1.39699" stroke-miterlimit="10"/>
<path d="M193.287 57.8018L194.73 61.1046C213.292 103.615 223.634 149.155 225.228 195.392V195.392" stroke="#6CECAC" stroke-opacity="0.25" stroke-width="1.39699" stroke-miterlimit="10"/>
<path d="M209.702 54.7383L210.835 58.2135C225.451 102.188 231.599 148.458 228.964 194.65V194.65" stroke="#6CECAC" stroke-opacity="0.25" stroke-width="1.39699" stroke-miterlimit="10"/>
<path d="M226.334 53.1328L227.143 56.6213C237.695 101.711 239.602 148.341 232.768 194.119V194.119" stroke="#6CECAC" stroke-opacity="0.25" stroke-width="1.39699" stroke-miterlimit="10"/>
<path d="M243.045 53L243.531 56.5548C249.926 102.391 247.575 148.997 236.598 193.986V193.986" stroke="#6CECAC" stroke-opacity="0.25" stroke-width="1.39699" stroke-miterlimit="10"/>
<path d="M259.69 54.3398L259.865 57.9212C262.055 104.136 255.464 150.346 240.429 194.185V194.185" stroke="#6CECAC" stroke-opacity="0.25" stroke-width="1.39699" stroke-miterlimit="10"/>
<path d="M276.159 57.1387L275.997 60.72C273.969 106.931 263.192 152.365 244.219 194.689V194.689" stroke="#6CECAC" stroke-opacity="0.25" stroke-width="1.39699" stroke-miterlimit="10"/>
<path d="M292.305 61.3838L291.819 64.9386C285.579 110.795 270.704 155.107 247.955 195.605V195.605" stroke="#6CECAC" stroke-opacity="0.25" stroke-width="1.39699" stroke-miterlimit="10"/>
<path d="M307.991 67.0332L307.182 70.5217C296.794 115.647 277.938 158.471 251.583 196.797V196.797" stroke="#6CECAC" stroke-opacity="0.25" stroke-width="1.39699" stroke-miterlimit="10"/>
<path d="M323.099 74.0381L321.98 77.447C307.516 121.47 284.837 162.458 255.104 198.311V198.311" stroke="#6CECAC" stroke-opacity="0.25" stroke-width="1.39699" stroke-miterlimit="10"/>
<path d="M337.519 82.3535L336.089 85.643C317.679 128.223 291.354 167.053 258.464 200.14V200.14" stroke="#6CECAC" stroke-opacity="0.25" stroke-width="1.39699" stroke-miterlimit="10"/>
<path d="M351.115 91.8916L349.388 95.0618C327.169 135.839 297.413 172.185 261.646 202.237V202.237" stroke="#6CECAC" stroke-opacity="0.25" stroke-width="1.39699" stroke-miterlimit="10"/>
<path d="M363.781 102.607L361.784 105.605C335.944 144.25 303.01 177.824 264.668 204.61V204.61" stroke="#6CECAC" stroke-opacity="0.25" stroke-width="1.39699" stroke-miterlimit="10"/>
<path d="M375.435 114.387L373.155 117.199C343.889 153.421 308.008 183.956 267.353 207.236V207.236" stroke="#6CECAC" stroke-opacity="0.25" stroke-width="1.39699" stroke-miterlimit="10"/>
<path d="M385.956 127.188L383.433 129.84C350.982 163.338 312.462 190.59 269.848 210.195V210.195" stroke="#6CECAC" stroke-opacity="0.25" stroke-width="1.39699" stroke-miterlimit="10"/>
<path d="M395.274 140.783L392.481 143.104C357.106 173.602 316.258 197.344 272.03 213.113V213.113" stroke="#6CECAC" stroke-opacity="0.25" stroke-width="1.39699" stroke-miterlimit="10"/>
<path d="M403.276 155.188L400.322 157.311C362.308 184.566 319.461 204.615 273.977 216.43V216.43" stroke="#6CECAC" stroke-opacity="0.25" stroke-width="1.39699" stroke-miterlimit="10"/>
<path d="M410.019 170.257L406.889 172.101C366.544 195.897 322.041 212.091 275.661 219.852V219.852" stroke="#6CECAC" stroke-opacity="0.25" stroke-width="1.39699" stroke-miterlimit="10"/>
<path d="M415.292 185.828L412.014 187.393C369.661 207.541 323.858 219.745 276.955 223.379V223.379" stroke="#6CECAC" stroke-opacity="0.25" stroke-width="1.39699" stroke-miterlimit="10"/>
<path d="M419.15 201.825L415.738 203.152C371.716 219.479 324.986 227.598 277.94 227.094V227.094" stroke="#6CECAC" stroke-opacity="0.25" stroke-width="1.39699" stroke-miterlimit="10"/>
<path d="M421.524 218.087L418.017 219.042C372.684 231.43 325.4 235.398 278.588 230.741V230.741" stroke="#6CECAC" stroke-opacity="0.25" stroke-width="1.39699" stroke-miterlimit="10"/>
<path d="M422.413 234.495L418.825 235.145C372.546 243.479 325.093 243.259 278.896 234.495" stroke="#6CECAC" stroke-opacity="0.25" stroke-width="1.39699" stroke-miterlimit="10"/>
<path d="M421.793 250.916L418.165 251.247C371.316 255.466 324.078 251.062 278.87 238.262V238.262" stroke="#6CECAC" stroke-opacity="0.25" stroke-width="1.39699" stroke-miterlimit="10"/>
<path d="M419.69 267.218H416.048C368.993 267.304 322.334 258.757 278.467 242.016V242.016" stroke="#6CECAC" stroke-opacity="0.25" stroke-width="1.39699" stroke-miterlimit="10"/>
<path d="M416.101 283.268L412.473 282.95C365.631 278.867 319.972 266.241 277.832 245.717V245.717" stroke="#6CECAC" stroke-opacity="0.25" stroke-width="1.39699" stroke-miterlimit="10"/>
<path d="M411.069 298.933L407.481 298.296C361.15 290.125 316.778 273.521 276.644 249.338V249.338" stroke="#6CECAC" stroke-opacity="0.25" stroke-width="1.39699" stroke-miterlimit="10"/>
<path d="M404.624 314.093L401.103 313.138C355.732 300.909 313.077 280.469 275.324 252.865V252.865" stroke="#6CECAC" stroke-opacity="0.25" stroke-width="1.39699" stroke-miterlimit="10"/>
<path d="M396.84 328.632L393.414 327.306C349.344 311.119 308.725 287 273.638 256.183V256.183" stroke="#6CECAC" stroke-opacity="0.25" stroke-width="1.39699" stroke-miterlimit="10"/>
<path d="M387.749 342.413L384.458 340.861C342.034 320.86 303.774 293.253 271.642 259.458V259.458" stroke="#6CECAC" stroke-opacity="0.25" stroke-width="1.39699" stroke-miterlimit="10"/>
<path d="M377.431 355.332L374.302 353.488C333.874 329.831 298.286 298.968 269.362 262.482V262.482" stroke="#6CECAC" stroke-opacity="0.25" stroke-width="1.39699" stroke-miterlimit="10"/>
<path d="M365.979 367.27L363.025 365.161C324.919 338.033 292.291 304.157 266.812 265.268V265.268" stroke="#6CECAC" stroke-opacity="0.25" stroke-width="1.39699" stroke-miterlimit="10"/>
<path d="M353.491 378.226L350.793 375.865C315.311 345.486 285.902 308.865 264.076 267.881V267.881" stroke="#6CECAC" stroke-opacity="0.25" stroke-width="1.39699" stroke-miterlimit="10"/>
<path d="M340.053 387.989L337.531 385.336C304.957 351.95 279.002 312.882 260.998 270.136V270.136" stroke="#6CECAC" stroke-opacity="0.25" stroke-width="1.39699" stroke-miterlimit="10"/>
<path d="M325.782 396.531L323.502 393.798C294.107 357.675 271.816 316.48 257.773 272.324V272.324" stroke="#6CECAC" stroke-opacity="0.25" stroke-width="1.39699" stroke-miterlimit="10"/>
<path d="M310.784 403.774L308.774 400.789C282.786 362.223 264.342 319.228 254.389 274.01V274.01" stroke="#6CECAC" stroke-opacity="0.25" stroke-width="1.39699" stroke-miterlimit="10"/>
<path d="M295.192 409.716L293.465 406.559C271.091 365.845 256.64 321.383 250.855 275.455V275.455" stroke="#6CECAC" stroke-opacity="0.25" stroke-width="1.39699" stroke-miterlimit="10"/>
<path d="M279.182 414.186L277.738 410.883C259.177 368.373 248.834 322.833 247.241 276.596V276.596" stroke="#6CECAC" stroke-opacity="0.25" stroke-width="1.39699" stroke-miterlimit="10"/>
<path d="M262.713 417.249L261.58 413.84C246.957 369.862 240.809 323.587 243.451 277.391V277.391" stroke="#6CECAC" stroke-opacity="0.25" stroke-width="1.39699" stroke-miterlimit="10"/>
<path d="M246.082 418.855L245.259 415.353C234.711 370.267 232.808 323.642 239.648 277.869V277.869" stroke="#6CECAC" stroke-opacity="0.25" stroke-width="1.39699" stroke-miterlimit="10"/>
<path d="M229.369 418.999L228.87 415.445C222.478 369.608 224.834 323.001 235.816 278.014V278.014" stroke="#6CECAC" stroke-opacity="0.25" stroke-width="1.39699" stroke-miterlimit="10"/>
<path d="M212.722 417.674L212.547 414.093C210.349 367.87 216.936 321.65 231.97 277.803V277.803" stroke="#6CECAC" stroke-opacity="0.25" stroke-width="1.39699" stroke-miterlimit="10"/>
<path d="M196.254 414.848L196.416 411.267C198.444 365.056 209.221 319.622 228.194 277.298V277.298" stroke="#6CECAC" stroke-opacity="0.25" stroke-width="1.39699" stroke-miterlimit="10"/>
<path d="M180.11 410.604L180.596 407.049C186.829 361.191 201.705 316.878 224.46 276.383V276.383" stroke="#6CECAC" stroke-opacity="0.25" stroke-width="1.39699" stroke-miterlimit="10"/>
<path d="M164.422 404.954L165.231 401.452C175.62 356.331 194.475 313.511 220.83 275.189V275.189" stroke="#6CECAC" stroke-opacity="0.25" stroke-width="1.39699" stroke-miterlimit="10"/>
<path d="M149.315 397.951L150.435 394.528C164.89 350.506 187.57 309.521 217.31 273.678V273.678" stroke="#6CECAC" stroke-opacity="0.25" stroke-width="1.39699" stroke-miterlimit="10"/>
<path d="M134.855 389.634L136.285 386.331C154.701 343.761 181.026 304.941 213.911 271.86V271.86" stroke="#6CECAC" stroke-opacity="0.25" stroke-width="1.39699" stroke-miterlimit="10"/>
<path d="M121.366 380.083L123.093 376.926C145.316 336.151 175.071 299.806 210.835 269.751V269.751" stroke="#6CECAC" stroke-opacity="0.25" stroke-width="1.39699" stroke-miterlimit="10"/>
<path d="M108.622 369.379L110.578 366.381C136.411 327.73 169.346 294.155 207.694 267.377V267.377" stroke="#6CECAC" stroke-opacity="0.25" stroke-width="1.39699" stroke-miterlimit="10"/>
<path d="M96.9795 357.599L99.2455 354.787C128.499 318.57 164.361 288.031 204.994 264.736V264.736" stroke="#6CECAC" stroke-opacity="0.25" stroke-width="1.39699" stroke-miterlimit="10"/>
<path d="M86.459 344.827L88.9678 342.174C121.418 308.675 159.939 281.424 202.553 261.819V261.819" stroke="#6CECAC" stroke-opacity="0.25" stroke-width="1.39699" stroke-miterlimit="10"/>
<path d="M77.1377 331.192L79.8354 328.831C115.212 298.332 156.06 274.585 200.287 258.809V258.809" stroke="#6CECAC" stroke-opacity="0.25" stroke-width="1.39699" stroke-miterlimit="10"/>
<path d="M69.0996 316.785L72.0536 314.676C110.064 287.416 152.912 267.367 198.399 255.558V255.558" stroke="#6CECAC" stroke-opacity="0.25" stroke-width="1.39699" stroke-miterlimit="10"/>
<path d="M62.4072 301.731L65.5365 299.887C105.879 276.082 150.383 259.888 196.765 252.136V252.136" stroke="#6CECAC" stroke-opacity="0.25" stroke-width="1.39699" stroke-miterlimit="10"/>
<path d="M57.1211 286.146L60.3988 284.581C102.755 264.442 148.556 252.243 195.458 248.608V248.608" stroke="#6CECAC" stroke-opacity="0.25" stroke-width="1.39699" stroke-miterlimit="10"/>
<path d="M53.2646 270.162L56.6772 268.836C100.701 252.524 147.432 244.427 194.474 244.96V244.96" stroke="#6CECAC" stroke-opacity="0.25" stroke-width="1.39699" stroke-miterlimit="10"/>
<path d="M50.8896 253.9L54.3966 252.932C99.7279 240.559 147.007 236.601 193.812 241.259V241.259" stroke="#6CECAC" stroke-opacity="0.25" stroke-width="1.39699" stroke-miterlimit="10"/>
<path d="M50 237.492L53.5879 236.842C99.8615 228.501 147.311 228.722 193.503 237.492V237.492" stroke="#6CECAC" stroke-opacity="0.25" stroke-width="1.39699" stroke-miterlimit="10"/>
<g filter="url(#filter0_f_1664_4134)">
<path d="M65.3249 220.5C65.3249 168.39 107.471 123.637 159.39 128.096C192.564 130.946 228.36 133.225 258 133.225C287.64 133.225 323.436 130.946 356.61 128.096C408.529 123.637 450.675 168.39 450.675 220.5V220.5V220.5C450.675 271.785 407.979 315.381 357.008 309.72C323.743 306.025 287.791 303.064 258 303.064C228.209 303.064 192.257 306.025 158.992 309.72C108.02 315.381 65.3249 271.785 65.3249 220.5V220.5V220.5Z" fill="url(#paint0_radial_1664_4134)"/>
</g>
<path d="M316.5 120.625C335.728 120.625 351.375 136.272 351.375 155.5V190.375H328.125V155.5C328.125 149.095 322.905 143.875 316.5 143.875H293.25C286.845 143.875 281.625 149.095 281.625 155.5V190.375H284.531C289.321 190.375 293.25 194.304 293.25 199.094V286.281C293.25 291.071 289.321 295 284.531 295H185.719C183.409 294.991 181.197 294.069 179.564 292.436C177.931 290.803 177.009 288.591 177 286.281V199.094C177 194.304 180.929 190.375 185.719 190.375H258.375V155.5C258.375 136.272 274.022 120.625 293.25 120.625H316.5Z" fill="#6CECAC"/>
<path d="M243.185 218.57C243.708 218.718 244.198 218.969 244.625 219.307C245.053 219.646 245.41 220.066 245.676 220.544C245.942 221.022 246.113 221.549 246.177 222.093C246.242 222.638 246.2 223.19 246.053 223.717L233.834 267.64C233.538 268.705 232.834 269.609 231.878 270.151C230.921 270.694 229.791 270.83 228.734 270.532C227.678 270.233 226.782 269.523 226.245 268.558C225.707 267.593 225.571 266.452 225.868 265.386L238.086 221.458C238.233 220.931 238.481 220.437 238.817 220.006C239.153 219.575 239.57 219.215 240.043 218.947C240.517 218.678 241.039 218.507 241.578 218.442C242.118 218.377 242.665 218.419 243.188 218.568L243.185 218.57ZM223.717 229.797C224.491 230.579 224.926 231.64 224.926 232.746C224.926 233.852 224.491 234.912 223.717 235.695L214.948 244.55L223.722 253.403C224.498 254.186 224.933 255.248 224.933 256.355C224.933 257.462 224.497 258.523 223.721 259.306C222.945 260.088 221.893 260.528 220.796 260.527C219.698 260.527 218.646 260.087 217.871 259.304L206.171 247.499C205.396 246.717 204.961 245.656 204.961 244.55C204.961 243.444 205.396 242.384 206.171 241.601L217.868 229.797C218.252 229.409 218.708 229.101 219.21 228.891C219.712 228.681 220.25 228.573 220.794 228.573C221.337 228.573 221.875 228.681 222.377 228.891C222.879 229.101 223.333 229.409 223.717 229.797ZM248.204 235.695C247.797 235.313 247.471 234.852 247.245 234.34C247.019 233.828 246.898 233.275 246.888 232.715C246.878 232.155 246.98 231.598 247.188 231.079C247.396 230.559 247.706 230.087 248.099 229.691C248.491 229.294 248.959 228.982 249.474 228.772C249.989 228.562 250.541 228.459 251.096 228.469C251.652 228.479 252.2 228.601 252.707 228.83C253.214 229.058 253.671 229.386 254.05 229.797L265.75 241.598C266.525 242.381 266.961 243.442 266.961 244.549C266.961 245.656 266.525 246.717 265.75 247.499L254.052 259.304C253.668 259.692 253.212 259.999 252.711 260.209C252.209 260.419 251.671 260.527 251.128 260.527C250.584 260.527 250.046 260.42 249.545 260.21C249.043 260 248.587 259.693 248.202 259.306C247.818 258.918 247.513 258.458 247.305 257.952C247.097 257.445 246.99 256.903 246.99 256.355C246.99 255.807 247.097 255.264 247.305 254.757C247.512 254.251 247.817 253.791 248.201 253.403L256.975 244.55L248.204 235.695Z" fill="#111111"/>
<g clip-path="url(#clip0_1664_4134)">
<path d="M85.4607 323.403L131.843 337.29L127.875 350.542C126.004 356.791 125.07 359.912 122.547 361.272C120.024 362.632 116.903 361.697 110.655 359.827L90.777 353.875C84.5287 352.004 81.4078 351.069 80.0477 348.547C78.6876 346.024 79.622 342.903 81.4928 336.655L85.4607 323.403ZM81.3812 310.683L86.4527 320.09L103.673 310.806L97.28 303.087C96.8231 302.536 96.2065 302.14 95.5152 301.955C94.824 301.769 94.0922 301.802 93.4208 302.05L83.2306 305.797C82.7657 305.968 82.3429 306.237 81.991 306.586C81.6391 306.934 81.3662 307.355 81.1909 307.818C81.0155 308.281 80.9417 308.777 80.9746 309.271C81.0074 309.766 81.1461 310.247 81.3812 310.683ZM142.241 328.906L132.835 333.977L123.551 316.757L133.133 313.822C133.818 313.613 134.55 313.621 135.23 313.846C135.909 314.071 136.503 314.501 136.927 315.077L143.382 323.807C143.676 324.205 143.881 324.663 143.984 325.147C144.086 325.632 144.083 326.133 143.975 326.617C143.867 327.1 143.656 327.555 143.357 327.95C143.058 328.345 142.677 328.671 142.241 328.906Z" fill="white"/>
<path d="M129.521 332.985L128.53 336.298L88.7733 324.395L89.7653 321.082L102.68 314.118L122.558 320.07L129.521 332.985Z" stroke="white" stroke-width="2" stroke-linecap="round"/>
</g>
<g clip-path="url(#clip1_1664_4134)">
<path d="M84.4607 134.403L130.843 148.29L126.875 161.542C125.004 167.791 124.07 170.912 121.547 172.272C119.024 173.632 115.903 172.697 109.655 170.827L89.777 164.875C83.5287 163.004 80.4078 162.069 79.0477 159.547C77.6876 157.024 78.622 153.903 80.4928 147.655L84.4607 134.403ZM80.3812 121.683L85.4527 131.09L102.673 121.806L96.28 114.087C95.8231 113.536 95.2065 113.14 94.5152 112.955C93.824 112.769 93.0922 112.802 92.4208 113.05L82.2306 116.797C81.7657 116.968 81.3429 117.237 80.991 117.586C80.6391 117.934 80.3662 118.355 80.1909 118.818C80.0155 119.281 79.9417 119.777 79.9746 120.271C80.0074 120.766 80.1461 121.247 80.3812 121.683ZM141.241 139.906L131.835 144.977L122.551 127.757L132.133 124.822C132.818 124.613 133.55 124.621 134.23 124.846C134.909 125.071 135.503 125.501 135.927 126.077L142.382 134.807C142.676 135.205 142.881 135.663 142.984 136.147C143.086 136.632 143.083 137.133 142.975 137.617C142.867 138.1 142.656 138.555 142.357 138.95C142.058 139.345 141.677 139.671 141.241 139.906Z" fill="white"/>
<path d="M128.521 143.985L127.53 147.298L87.7733 135.395L88.7653 132.082L101.68 125.118L121.558 131.07L128.521 143.985Z" stroke="white" stroke-width="2" stroke-linecap="round"/>
</g>
<g clip-path="url(#clip2_1664_4134)">
<path d="M371.591 83.1647L392.904 66.6459L397.624 72.7353C399.849 75.6065 400.961 77.0406 400.76 78.6241C400.559 80.2076 399.125 81.3191 396.254 83.5444L387.12 90.6239C384.249 92.8492 382.815 93.9607 381.231 93.76C379.648 93.5594 378.536 92.1253 376.311 89.2541L371.591 83.1647ZM364.507 80.8941L370.411 81.6423L371.781 70.8332L366.213 71.23C365.816 71.2587 365.437 71.41 365.129 71.6631C364.821 71.9162 364.599 72.2586 364.494 72.6431L362.891 78.4736C362.818 78.7397 362.803 79.0184 362.848 79.2908C362.892 79.5632 362.994 79.8229 363.147 80.0524C363.3 80.2819 363.501 80.4759 363.735 80.6211C363.97 80.7663 364.233 80.8594 364.507 80.8941ZM392.472 59.219L391.724 65.1235L380.915 63.7537L382.688 58.461C382.815 58.0831 383.056 57.754 383.378 57.5189C383.7 57.2838 384.087 57.1543 384.486 57.1484L390.531 57.0511C390.807 57.0468 391.081 57.1018 391.334 57.2124C391.587 57.323 391.813 57.4866 391.997 57.6922C392.181 57.8977 392.318 58.1405 392.401 58.4039C392.483 58.6673 392.507 58.9453 392.472 59.219Z" fill="white"/>
<path d="M390.202 66.3036L391.382 67.826L373.113 81.985L371.933 80.4626L372.961 72.3558L382.095 65.2763L390.202 66.3036Z" stroke="white" stroke-width="2" stroke-linecap="round"/>
</g>
<path d="M376.272 330.574L447.537 322.244L449.917 342.606C451.039 352.206 451.6 357.001 448.965 360.333C446.331 363.664 441.536 364.225 431.935 365.347L401.393 368.917C391.793 370.039 386.998 370.599 383.666 367.965C380.335 365.331 379.774 360.535 378.652 350.935L376.272 330.574ZM363.255 315.661L375.677 325.483L393.659 302.742L380.429 295.991C379.484 295.51 378.413 295.334 377.364 295.487C376.314 295.64 375.338 296.115 374.57 296.846L362.903 307.926C362.371 308.432 361.954 309.046 361.679 309.727C361.405 310.408 361.281 311.14 361.314 311.874C361.347 312.607 361.538 313.325 361.873 313.978C362.208 314.632 362.679 315.205 363.255 315.661ZM456.765 304.732L446.942 317.154L424.201 299.172L435.517 289.553C436.326 288.866 437.328 288.448 438.384 288.355C439.441 288.262 440.5 288.499 441.416 289.034L455.323 297.124C455.958 297.494 456.506 297.995 456.929 298.595C457.353 299.194 457.643 299.878 457.78 300.599C457.917 301.32 457.897 302.063 457.722 302.776C457.546 303.489 457.22 304.156 456.765 304.732Z" fill="white"/>
<path d="M441.851 317.749L442.446 322.839L381.362 329.979L380.767 324.888L394.253 307.832L424.796 304.263L441.851 317.749Z" stroke="white" stroke-width="2" stroke-linecap="round"/>
<path d="M411.05 246.21C413.952 245.543 416.856 247.361 417.523 250.262L418.734 255.525L415.226 256.332L414.015 251.069C413.793 250.103 412.824 249.496 411.857 249.719L408.349 250.526C407.382 250.748 406.776 251.717 406.998 252.684L408.209 257.946L408.647 257.845C409.37 257.679 410.099 258.135 410.266 258.858L413.292 272.015C413.458 272.737 413.002 273.467 412.279 273.633L397.369 277.063C397.02 277.142 396.654 277.079 396.351 276.89C396.048 276.7 395.832 276.398 395.75 276.05L392.724 262.893C392.558 262.171 393.014 261.441 393.737 261.275L404.7 258.753L403.49 253.491C402.822 250.589 404.64 247.685 407.542 247.017L411.05 246.21Z" fill="white"/>
<path d="M366.502 38.5127C369.466 38.2301 372.108 40.4119 372.391 43.3756L372.903 48.7512L369.32 49.093L368.807 43.7174C368.713 42.7301 367.832 42.0023 366.844 42.0965L363.26 42.4382C362.273 42.5324 361.545 43.4137 361.64 44.401L362.152 49.7766L362.6 49.7339C363.338 49.6635 364.002 50.2114 364.072 50.9496L365.354 64.3886C365.424 65.1269 364.876 65.7903 364.138 65.8607L348.907 67.3133C348.551 67.3459 348.197 67.2364 347.921 67.0086C347.645 66.7809 347.471 66.4535 347.435 66.0976L346.154 52.6586C346.083 51.9203 346.631 51.2569 347.369 51.1865L358.568 50.1184L358.056 44.7428C357.773 41.7791 359.955 39.1372 362.919 38.8545L366.502 38.5127Z" fill="white"/>
<path d="M131.964 271.975C134.928 271.692 137.57 273.874 137.853 276.838L138.365 282.213L134.782 282.555L134.269 277.179C134.175 276.192 133.293 275.464 132.306 275.558L128.722 275.9C127.735 275.994 127.007 276.876 127.101 277.863L127.614 283.239L128.062 283.196C128.8 283.125 129.464 283.673 129.534 284.412L130.816 297.851C130.886 298.589 130.338 299.252 129.6 299.323L114.369 300.775C114.013 300.808 113.659 300.698 113.383 300.471C113.107 300.243 112.933 299.915 112.897 299.56L111.615 286.121C111.545 285.382 112.093 284.719 112.831 284.648L124.03 283.58L123.518 278.205C123.235 275.241 125.417 272.599 128.381 272.316L131.964 271.975Z" fill="white"/>
<path d="M124.6 83C127.577 83 130 85.4228 130 88.4V93.8H126.4V88.4C126.4 87.4082 125.592 86.6 124.6 86.6H121C120.008 86.6 119.2 87.4082 119.2 88.4V93.8H119.65C120.392 93.8 121 94.4084 121 95.15V108.65C121 109.392 120.392 110 119.65 110H104.35C103.992 109.999 103.65 109.856 103.397 109.603C103.144 109.35 103.001 109.008 103 108.65V95.15C103 94.4084 103.608 93.8 104.35 93.8H115.6V88.4C115.6 85.4228 118.023 83 121 83H124.6Z" fill="white"/>
<defs>
<filter id="filter0_f_1664_4134" x="44.3883" y="106.852" width="427.223" height="224.301" filterUnits="userSpaceOnUse" color-interpolation-filters="sRGB">
<feFlood flood-opacity="0" result="BackgroundImageFix"/>
<feBlend mode="normal" in="SourceGraphic" in2="BackgroundImageFix" result="shape"/>
<feGaussianBlur stdDeviation="10.4685" result="effect1_foregroundBlur_1664_4134"/>
</filter>
<radialGradient id="paint0_radial_1664_4134" cx="0" cy="0" r="1" gradientUnits="userSpaceOnUse" gradientTransform="translate(258 220.5) scale(184.866 454.662)">
<stop offset="0.484375" stop-color="#4959EC" stop-opacity="0"/>
<stop offset="0.864583" stop-color="#4959EC" stop-opacity="0.05"/>
<stop offset="1" stop-color="#4959EC" stop-opacity="0.1"/>
</radialGradient>
<clipPath id="clip0_1664_4134">
<rect width="83" height="83" fill="white" transform="translate(79.8076 282) rotate(16.6685)"/>
</clipPath>
<clipPath id="clip1_1664_4134">
<rect width="83" height="83" fill="white" transform="translate(78.8076 93) rotate(16.6685)"/>
</clipPath>
<clipPath id="clip2_1664_4134">
<rect width="46.2259" height="46.2259" fill="white" transform="translate(351 72.3184) rotate(-37.7777)"/>
</clipPath>
</defs>
</svg>
