<svg width="180" height="44" viewBox="0 0 180 44" fill="none" xmlns="http://www.w3.org/2000/svg" role="img" aria-label="Calimero Core">
    <path fill-rule="evenodd" clip-rule="evenodd" d="M1.99632 3.66395C10.2525 -1.05691 20.1869 0.184693 24.2979 1.44236C25.0644 1.67684 25.4946 2.48488 25.2588 3.24717C25.0231 4.00945 24.2106 4.43732 23.4441 4.20284C19.7461 3.07152 10.7334 1.99954 3.44373 6.16776C3.28333 6.25948 3.19314 6.42741 3.20159 6.60239C3.47851 12.3364 6.47521 23.2787 16.7996 28.9983C17.5001 29.3864 17.7517 30.2659 17.3615 30.9626C16.9712 31.6593 16.087 31.9095 15.3864 31.5214C3.84624 25.1282 0.603905 13.0137 0.300971 6.74094C0.239834 5.47501 0.899242 4.29125 1.99632 3.66395Z" fill="#fafafa"/>
    <path fill-rule="evenodd" clip-rule="evenodd" d="M29.5664 3.54671C30.3672 3.50486 31.0505 4.11657 31.0926 4.91301C31.6451 15.3703 26.1856 23.0399 22.6668 26.2841C21.7845 27.0975 20.4667 27.4148 19.261 26.8993C16.7595 25.8296 14.3382 23.5793 12.3718 21.3349C10.3763 19.0573 8.71015 16.623 7.73874 14.9886C7.33067 14.3021 7.55948 13.4165 8.2498 13.0107C8.94011 12.6048 9.83053 12.8324 10.2386 13.519C11.1313 15.0208 12.6959 17.3086 14.5612 19.4376C16.4557 21.5999 18.5252 23.4409 20.4081 24.246C20.4598 24.2681 20.5711 24.2781 20.6926 24.166C23.7736 21.3254 28.6877 14.4342 28.1926 5.06455C28.1506 4.26812 28.7656 3.58855 29.5664 3.54671Z" fill="#fafafa"/>
    <path fill-rule="evenodd" clip-rule="evenodd" d="M13.9626 9.08908C11.3729 9.35469 9.21144 9.9738 8.08636 10.4321C7.34428 10.7344 6.49632 10.3812 6.19237 9.64313C5.88843 8.90511 6.2436 8.06176 6.98567 7.75947C8.38535 7.18931 10.8191 6.50803 13.6647 6.21619C16.5123 5.92413 19.8708 6.01174 23.069 7.0678C24.4419 7.52113 25.4089 8.83201 25.3086 10.3389C25.1006 13.4629 23.6591 16.6571 20.7873 20.3175C20.294 20.9463 19.3816 21.0583 18.7494 20.5677C18.1171 20.0771 18.0045 19.1696 18.4978 18.5408C21.1716 15.1328 22.2556 12.4819 22.4109 10.1481C22.4192 10.0241 22.3408 9.87051 22.154 9.8088C19.4671 8.92157 16.5503 8.82369 13.9626 9.08908Z" fill="#fafafa"/>
    <path d="M46.1567 26.47C44.6252 26.47 43.238 26.1371 41.9951 25.4712C40.7744 24.7832 39.7978 23.7955 39.0654 22.5082C38.3551 21.1987 38 19.6339 38 17.8139C38 15.9718 38.3995 14.407 39.1985 13.1197C39.9976 11.8324 41.0518 10.8558 42.3613 10.19C43.6708 9.50191 45.0802 9.15789 46.5895 9.15789C47.6104 9.15789 48.5093 9.32435 49.2862 9.65728C50.0852 9.9902 50.7954 10.4119 51.4169 10.9224L49.1197 14.0852C48.3429 13.4415 47.5993 13.1197 46.8891 13.1197C45.7128 13.1197 44.7695 13.5414 44.0592 14.3848C43.3712 15.2282 43.0272 16.3713 43.0272 17.8139C43.0272 19.2344 43.3712 20.3775 44.0592 21.2431C44.7695 22.0865 45.6573 22.5082 46.7226 22.5082C47.2553 22.5082 47.7769 22.3972 48.2874 22.1753C48.7979 21.9311 49.264 21.6426 49.6857 21.3097L51.6166 24.5057C50.7954 25.216 49.9076 25.7265 48.9532 26.0372C47.9989 26.3257 47.0667 26.47 46.1567 26.47Z" fill="#fafafa"/>
    <path d="M56.9556 26.47C55.4463 26.47 54.2478 25.9928 53.36 25.0384C52.4722 24.0618 52.0283 22.8744 52.0283 21.4761C52.0283 19.7449 52.7607 18.391 54.2256 17.4144C55.6905 16.4379 58.0542 15.7831 61.3169 15.4502C61.2725 14.7177 61.0506 14.1407 60.6511 13.719C60.2737 13.2751 59.6301 13.0531 58.7201 13.0531C58.032 13.0531 57.3329 13.1863 56.6227 13.4526C55.9124 13.719 55.1578 14.0852 54.3588 14.5513L52.5943 11.3219C53.6374 10.6782 54.7472 10.1567 55.9235 9.75716C57.122 9.35765 58.365 9.15789 59.6523 9.15789C61.7608 9.15789 63.381 9.76825 64.513 10.989C65.6449 12.2097 66.2109 14.0852 66.2109 16.6154V26.0705H62.2158L61.8829 24.3726H61.7497C61.0617 24.994 60.3181 25.5045 59.5191 25.904C58.7423 26.2813 57.8878 26.47 56.9556 26.47ZM58.6202 22.6747C59.1751 22.6747 59.6523 22.5526 60.0518 22.3084C60.4735 22.0421 60.8952 21.6981 61.3169 21.2764V18.3799C59.5857 18.6019 58.3872 18.957 57.7213 19.4453C57.0555 19.9114 56.7225 20.4662 56.7225 21.1099C56.7225 21.6426 56.889 22.0421 57.2219 22.3084C57.577 22.5526 58.0431 22.6747 58.6202 22.6747Z" fill="#fafafa"/>
    <path d="M73.4579 26.47C71.7711 26.47 70.5948 25.9706 69.9289 24.9718C69.2852 23.9509 68.9634 22.6081 68.9634 20.9434V2.73244H73.8574V21.1432C73.8574 21.6537 73.9462 22.0088 74.1238 22.2086C74.3235 22.4083 74.5233 22.5082 74.723 22.5082C74.834 22.5082 74.9228 22.5082 74.9894 22.5082C75.0782 22.486 75.1891 22.4638 75.3223 22.4416L75.9216 26.0705C75.6552 26.1815 75.3112 26.2702 74.8895 26.3368C74.49 26.4256 74.0128 26.47 73.4579 26.47Z" fill="#fafafa"/>
    <path d="M77.1023 26.0705V9.5574H81.9963V26.0705H77.1023ZM79.5327 7.12705C78.7115 7.12705 78.0456 6.894 77.5351 6.42791C77.0246 5.96181 76.7694 5.34035 76.7694 4.56352C76.7694 3.7867 77.0246 3.16524 77.5351 2.69914C78.0456 2.23305 78.7115 2 79.5327 2C80.3539 2 81.0197 2.23305 81.5302 2.69914C82.0407 3.16524 82.296 3.7867 82.296 4.56352C82.296 5.34035 82.0407 5.96181 81.5302 6.42791C81.0197 6.894 80.3539 7.12705 79.5327 7.12705Z" fill="#fafafa"/>
    <path d="M84.9161 26.0705V9.5574H88.9112L89.2441 11.6881H89.3773C90.0653 11.0001 90.7978 10.4119 91.5746 9.92362C92.3514 9.41313 93.2836 9.15789 94.3712 9.15789C95.5475 9.15789 96.4908 9.40204 97.201 9.89033C97.9335 10.3564 98.5105 11.0334 98.9322 11.9212C99.6647 11.1665 100.442 10.5229 101.263 9.9902C102.084 9.43533 103.038 9.15789 104.126 9.15789C105.901 9.15789 107.2 9.75716 108.021 10.9557C108.865 12.132 109.286 13.7523 109.286 15.8164V26.0705H104.392V16.449C104.392 15.2504 104.226 14.4292 103.893 13.9853C103.582 13.5414 103.072 13.3195 102.361 13.3195C101.54 13.3195 100.597 13.8521 99.5315 14.9175V26.0705H94.6375V16.449C94.6375 15.2504 94.471 14.4292 94.1381 13.9853C93.8274 13.5414 93.3169 13.3195 92.6067 13.3195C91.7854 13.3195 90.8533 13.8521 89.8101 14.9175V26.0705H84.9161Z" fill="#fafafa"/>
    <path d="M119.466 26.47C117.89 26.47 116.469 26.126 115.204 25.4379C113.939 24.7499 112.94 23.7622 112.208 22.4749C111.475 21.1876 111.109 19.6339 111.109 17.8139C111.109 16.0162 111.475 14.4736 112.208 13.1863C112.962 11.899 113.939 10.9113 115.138 10.2233C116.336 9.51301 117.59 9.15789 118.9 9.15789C120.475 9.15789 121.774 9.51301 122.795 10.2233C123.838 10.9113 124.615 11.8546 125.125 13.0531C125.658 14.2295 125.924 15.5722 125.924 17.0815C125.924 17.5032 125.902 17.9249 125.858 18.3466C125.813 18.7461 125.769 19.0458 125.725 19.2455H115.837C116.059 20.4441 116.558 21.3319 117.335 21.9089C118.112 22.4638 119.044 22.7412 120.131 22.7412C121.308 22.7412 122.495 22.375 123.694 21.6426L125.325 24.6056C124.482 25.1827 123.538 25.6377 122.495 25.9706C121.452 26.3035 120.442 26.47 119.466 26.47ZM115.803 16.0161H121.763C121.763 15.1062 121.541 14.3626 121.097 13.7856C120.675 13.1863 119.976 12.8867 118.999 12.8867C118.245 12.8867 117.568 13.153 116.969 13.6857C116.369 14.1962 115.981 14.973 115.803 16.0161Z" fill="#fafafa"/>
    <path d="M127.919 26.0705V9.5574H131.914L132.247 12.4539H132.38C132.979 11.3441 133.701 10.5229 134.544 9.9902C135.388 9.43533 136.231 9.15789 137.074 9.15789C137.54 9.15789 137.929 9.19118 138.24 9.25777C138.55 9.30216 138.817 9.37984 139.039 9.49082L138.24 13.719C137.951 13.6302 137.663 13.5636 137.374 13.5192C137.108 13.4748 136.797 13.4526 136.442 13.4526C135.82 13.4526 135.166 13.6857 134.478 14.1518C133.812 14.5957 133.257 15.3725 132.813 16.4822V26.0705H127.919Z" fill="#fafafa"/>
    <path d="M146.563 26.47C145.165 26.47 143.844 26.1371 142.601 25.4712C141.38 24.7832 140.393 23.7955 139.638 22.5082C138.883 21.1987 138.506 19.6339 138.506 17.8139C138.506 15.9718 138.883 14.407 139.638 13.1197C140.393 11.8324 141.38 10.8558 142.601 10.19C143.844 9.50191 145.165 9.15789 146.563 9.15789C147.961 9.15789 149.271 9.50191 150.491 10.19C151.712 10.8558 152.7 11.8324 153.454 13.1197C154.209 14.407 154.586 15.9718 154.586 17.8139C154.586 19.6339 154.209 21.1987 153.454 22.5082C152.7 23.7955 151.712 24.7832 150.491 25.4712C149.271 26.1371 147.961 26.47 146.563 26.47ZM146.563 22.5082C147.562 22.5082 148.316 22.0865 148.827 21.2431C149.337 20.3775 149.593 19.2344 149.593 17.8139C149.593 16.3713 149.337 15.2282 148.827 14.3848C148.316 13.5414 147.562 13.1197 146.563 13.1197C145.542 13.1197 144.776 13.5414 144.266 14.3848C143.777 15.2282 143.533 16.3713 143.533 17.8139C143.533 19.2344 143.777 20.3775 144.266 21.2431C144.776 22.0865 145.542 22.5082 146.563 22.5082Z" fill="#fafafa"/>
    <text x="128" y="40" font-family="'DM Sans',system-ui,-apple-system,sans-serif" font-size="16" font-weight="700" letter-spacing="0.12em" fill="#a5ff11">CORE</text>
</svg>
